# xmcd CD database file
#
# Track frame offsets:
#	150
#	19217
#	37612
#	58964
#	80292
#	104410
#	123342
#	141395
#	161442
#	178468
#	199046
#	223867
#	241481
#	261412
#	281016
#
# Disc length: 3992 seconds
#
# Revision: 1
# Processed by: cddbd v1.5PL3 Copyright (c) Steve Scherf et al.
# Submitted via: CDex 1.51
#
DISCID=e30f960f
DTITLE=Andrea Bocelli - Romanza
DYEAR=1900
DGENRE=Vocal
TTITLE0=Por Ti Volaré (Con Te Partirò)
TTITLE1=Vivere (con Gerardina Trovato)
TTITLE2=Por Amor (Per Amore)
TTITLE3=El Silencio De La Espera (Il Mare Calmo Della Sera)
TTITLE4=Caruso
TTITLE5=Macchine Da Guerra
TTITLE6=Le Tue Parole
TTITLE7=Vivo por Ella (Vivo Per Lei)  (con Marta Sánchez)
TTITLE8=Romanza
TTITLE9=La Luna Che Non C'è
TTITLE10=Rapsodia
TTITLE11=Voglio Restare Cosi`
TTITLE12=E Chiove
TTITLE13=Miserere - Live (con John Miles)
TTITLE14=Time to Say Goodbye (Con Te Partirò) Feat. Sarah Brightman
EXTD=\n
EXTT0=
EXTT1=
EXTT2=
EXTT3=
EXTT4=
EXTT5=
EXTT6=
EXTT7=
EXTT8=
EXTT9=
EXTT10=
EXTT11=
EXTT12=
EXTT13=
EXTT14=
PLAYORDER=
